#!OML:ASF F:\VICON\USERDATA\INSTALL\rory3\rory3.ASF
:FULLY-SPECIFIED
:DEGREES
160
root 0.745846 17.8736 -0.554793 -1.41266 -4.94253 -4.66777
lowerback 7.34501 3.21769 4.71143
upperback -0.00960501 4.72781 1.0234
thorax -3.82974 2.26467 -2.06008
lowerneck -16.5347 -3.34512 -0.384973
upperneck 19.7423 -4.55282 0.0850251
head 8.9236 -2.15338 -0.473036
rclavicle 6.92718e-014 -6.26172e-015
rhumerus -27.6472 -9.61212 -80.5592
rradius 32.2659
rwrist -0.167076
rhand -15.6177 21.2831
rfingers 7.12502
rthumb 10.569 -8.43116
lclavicle 6.92718e-014 -6.26172e-015
lhumerus -41.6425 1.71616 83.1463
lradius 26.7299
lwrist 1.55228
lhand -23.0889 24.2928
lfingers 7.12502
lthumb 3.35723 54.2461
rfemur 13.267 7.47334 29.3936
rtibia 33.3663
rfoot -9.28004 -1.19744
rtoes -17.9595
lfemur -26.4013 -4.06742 -14.583
ltibia 24.9865
lfoot -1.32406 -0.863447
ltoes -19.3437
161
root 0.771255 17.8885 -0.349714 -1.59917 -4.52695 -4.45432
lowerback 7.41829 3.08725 4.58353
upperback 0.00983038 4.54493 0.973964
thorax -3.86837 2.17524 -2.02746
lowerneck -16.7556 -3.32275 -0.427487
upperneck 19.9045 -4.52588 0.143
head 9.02216 -2.13485 -0.449474
rclavicle -4.66538e-014 3.926e-015
rhumerus -27.7632 -10.4394 -80.3787
rradius 31.8579
rwrist 0.142818
rhand -15.3713 19.7141
rfingers 7.12502
rthumb 10.8066 -9.98791
lclavicle -4.66538e-014 3.926e-015
lhumerus -41.612 2.22552 82.7587
lradius 26.5032
lwrist 1.43605
lhand -22.5411 25.4536
lfingers 7.12502
lthumb 3.88622 55.3979
rfemur 12.365 6.93132 28.9994
rtibia 35.7514
rfoot -7.03179 -0.997134
rtoes -17.0011
lfemur -26.03 -3.86179 -15.1555
ltibia 25.8209
lfoot -1.65313 -1.26846
ltoes -20.5917
162
root 0.804182 17.8974 -0.143374 -1.75564 -4.31203 -4.38338
lowerback 7.31243 3.01703 4.63854
upperback 0.0685212 4.44841 0.992156
thorax -3.75149 2.13058 -2.02098
lowerneck -16.8036 -3.33436 -0.593032
upperneck 19.8623 -4.51435 0.219621
head 9.02252 -2.1336 -0.395326
rclavicle -2.86079e-014 -1.78409e-014
rhumerus -28.1305 -11.0307 -80.1452
rradius 31.7803
rwrist 0.109125
rhand -14.9 17.03
rfingers 7.12502
rthumb 11.2612 -12.6477
lclavicle -2.86079e-014 -1.78409e-014
lhumerus -41.5722 2.80448 82.4061
lradius 26.2293
lwrist 1.55579
lhand -22.2218 23.9901
lfingers 7.12502
lthumb 4.19458 53.9286
rfemur 11.5031 6.50121 28.6693
rtibia 38.1886
rfoot -4.49686 -0.775826
rtoes -16.2107
lfemur -25.7308 -3.68507 -15.4889
ltibia 26.6789
lfoot -2.11038 -1.64335
ltoes -21.1873
163
root 0.83869 17.8982 0.0564129 -1.97452 -4.23768 -4.44694
lowerback 7.44459 2.97793 4.83039
upperback 0.102759 4.42043 1.02691
thorax -3.78037 2.11296 -2.0958
lowerneck -16.9076 -3.32534 -0.601302
upperneck 19.8817 -4.48736 0.167234
head 9.04687 -2.12668 -0.410595
rclavicle -4.19692e-014 -7.45443e-016
rhumerus -28.643 -11.776 -79.8709
rradius 31.6348
rwrist 0.322343
rhand -14.5199 16.2001
rfingers 7.12502
rthumb 11.6278 -13.4572
lclavicle -4.19692e-014 -7.45443e-016
lhumerus -41.3564 3.32465 82.0461
lradius 25.8624
lwrist 1.01939
lhand -21.627 24.4444
lfingers 7.12502
lthumb 4.76896 54.3707
rfemur 10.5619 6.14613 28.4676
rtibia 40.7061
rfoot -1.39656 -0.35787
rtoes -15.4038
lfemur -25.3501 -3.33142 -15.6732
ltibia 27.5395
lfoot -2.66059 -1.97539
ltoes -21.5262
164
root 0.868364 17.899 0.245081 -2.17084 -4.00959 -4.29658
lowerback 7.65279 2.8766 4.74306
upperback 0.116252 4.28983 1.01929
thorax -3.89766 2.04656 -2.05547
lowerneck -17.2137 -3.30408 -0.760822
upperneck 20.08 -4.44338 0.285262
head 9.17815 -2.10167 -0.346945
rclavicle 1.30806e-014 1.36167e-014
rhumerus -29.0591 -12.4647 -79.589
rradius 31.1766
rwrist 1.00956
rhand -14.5445 18.0019
rfingers 7.12502
rthumb 11.604 -11.6569
lclavicle 1.30806e-014 1.36167e-014
lhumerus -41.2028 3.76693 81.783
lradius 25.4834
lwrist 0.76255
lhand -21.8748 24.3912
lfingers 7.12502
lthumb 4.52968 54.3227
rfemur 9.38032 5.66447 28.0425
rtibia 43.3629
rfoot 1.30449 0.227302
rtoes -12.8
lfemur -25.021 -3.01122 -16.1168
ltibia 28.3525
lfoot -3.21813 -2.55827
ltoes -20.8775
165
root 0.895851 17.9075 0.434985 -2.36796 -3.86867 -4.20913
lowerback 7.72531 2.85008 4.71517
upperback 0.203636 4.253 1.02193
thorax -3.85185 2.0313 -2.03501
lowerneck -17.4217 -3.34844 -0.870526
upperneck 20.1553 -4.49807 0.386186
head 9.24794 -2.12231 -0.306407
rclavicle -2.99808e-014 -3.95085e-015
rhumerus -29.3976 -12.935 -79.3869
rradius 30.8596
rwrist 1.29181
rhand -14.5884 19.2776
rfingers 7.12502
rthumb 11.5617 -10.3835
lclavicle -2.99808e-014 -3.95085e-015
lhumerus -41.0833 3.97119 81.6768
lradius 25.2369
lwrist 1.36896
lhand -22.4535 21.637
lfingers 7.12502
lthumb 3.97086 51.5797
rfemur 8.1219 5.37125 27.7542
rtibia 46.1142
rfoot 3.78341 0.552367
rtoes -8.30112
lfemur -24.4962 -2.62991 -16.5148
ltibia 28.9957
lfoot -3.81699 -3.45646
ltoes -19.5028
166
root 0.925386 17.9245 0.629036 -2.54297 -4.03659 -3.91149
lowerback 7.7383 2.89184 4.42515
upperback 0.307243 4.27906 1.00398
thorax -3.76886 2.05299 -1.89255
lowerneck -17.4923 -3.35855 -0.854805
upperneck 20.0298 -4.50569 0.351915
head 9.21597 -2.12916 -0.321521
rclavicle 6.93223e-015 1.71079e-014
rhumerus -29.7423 -13.0047 -79.3531
rradius 30.9758
rwrist 1.00939
rhand -14.1601 18.1605
rfingers 7.12502
rthumb 11.9747 -11.477
lclavicle 6.93223e-015 1.71079e-014
lhumerus -41.1218 3.47738 82.1306
lradius 25.3917
lwrist 3.43504
lhand -23.6648 18.6313
lfingers 7.12502
lthumb 2.80104 48.5926
rfemur 6.80905 5.36324 27.2182
rtibia 48.9297
rfoot 6.34249 0.688448
rtoes -5.91459
lfemur -23.7299 -2.17504 -17.1128
ltibia 29.3518
lfoot -4.44341 -4.07283
ltoes -18.0038
